<svg width="20" height="20" viewBox="0 0 20 20" fill="none" xmlns="http://www.w3.org/2000/svg">
<g id="ico-search">
<path id="Vector" d="M9.20109 16.3975C11.1109 16.3975 12.9426 15.6391 14.293 14.2891C15.6435 12.939 16.4022 11.108 16.4022 9.19876C16.4022 7.28953 15.6435 5.4585 14.293 4.10847C12.9426 2.75844 11.1109 2 9.20109 2C7.29124 2 5.45962 2.75844 4.10915 4.10847C2.75868 5.4585 2 7.28953 2 9.19876C2 11.108 2.75868 12.939 4.10915 14.2891C5.45962 15.6391 7.29124 16.3975 9.20109 16.3975ZM15.546 16.9494C15.9701 18.2292 16.9383 18.3572 17.6824 17.2374C18.3625 16.2136 17.9144 15.3737 16.6822 15.3737C15.7701 15.3657 15.258 16.0776 15.546 16.9494Z" stroke="white" stroke-width="1.92378" stroke-linecap="round" stroke-linejoin="round"/>
</g>
</svg>
