<svg width="24" height="24" viewBox="0 0 24 24" fill="none" xmlns="http://www.w3.org/2000/svg">
<g id="Navigation icon" clip-path="url(#clip0_1287_9088)">
<g id="Group 6">
<path id="Vector (Stroke)" fill-rule="evenodd" clip-rule="evenodd" d="M4.27135 8.56981C4.27135 4.43563 7.63023 1.07675 11.7644 1.07675C15.8875 1.07675 19.2575 4.44673 19.2575 8.56981V11.778C19.2575 12.0165 19.3115 12.3656 19.4138 12.7386C19.5148 13.1071 19.6454 13.4346 19.7642 13.6426L21.0371 15.7566C22.0423 17.432 21.2387 19.6145 19.3868 20.2276C14.4315 21.8829 9.08491 21.8828 4.12964 20.2272L4.12655 20.2261C3.1914 19.9096 2.4901 19.2552 2.17654 18.4084C1.86261 17.5606 1.9694 16.6063 2.48119 15.7557L3.75604 13.6384C3.75632 13.6379 3.75661 13.6375 3.75689 13.637C3.87845 13.4326 4.0116 13.1063 4.11436 12.7361C4.21743 12.3648 4.27135 12.0162 4.27135 11.778V8.56981ZM11.7644 2.74188C8.54985 2.74188 5.93648 5.35525 5.93648 8.56981V11.778C5.93648 12.2168 5.84609 12.723 5.71882 13.1815C5.59147 13.6402 5.40864 14.1181 5.1863 14.4911L5.18443 14.4942L3.90796 16.6142C3.90791 16.6143 3.908 16.6142 3.90796 16.6142C3.63171 17.0735 3.61629 17.5014 3.73805 17.8302C3.86008 18.1598 4.15185 18.4764 4.6589 18.6484C9.27167 20.1892 14.2477 20.189 18.8604 18.6479L18.8629 18.647C19.6963 18.3715 20.0689 17.3803 19.6096 16.6139C19.6095 16.6137 19.6097 16.6141 19.6096 16.6139L18.3253 14.4808C18.112 14.1112 17.9335 13.6367 17.8079 13.179C17.6827 12.7223 17.5924 12.2166 17.5924 11.778V8.56981C17.5924 5.36635 14.9679 2.74188 11.7644 2.74188Z" fill="white"/>
<path id="Vector (Stroke)_2" fill-rule="evenodd" clip-rule="evenodd" d="M8.93556 1.92749C9.37898 0.796001 10.4799 0 11.7644 0C13.0489 0 14.1498 0.796001 14.5932 1.92749C14.7087 2.22214 14.6471 2.55678 14.4343 2.79104C14.2215 3.0253 13.8943 3.11867 13.59 3.03199C12.3966 2.69212 11.1321 2.69212 9.93877 3.03199C9.6344 3.11867 9.30721 3.0253 9.09443 2.79104C8.88165 2.55678 8.82009 2.22214 8.93556 1.92749Z" fill="white"/>
<path id="Vector (Stroke)_3" fill-rule="evenodd" clip-rule="evenodd" d="M9.26681 19.8353C9.2683 20.498 9.53191 21.1331 10.0001 21.6021C10.4502 22.0521 11.0847 22.3349 11.7645 22.3349C13.1363 22.3349 14.2622 21.209 14.2622 19.8372H15.9273C15.9273 22.1286 14.0559 24 11.7645 24C10.6239 24 9.57113 23.528 8.82241 22.7793L8.82196 22.7788C8.04287 21.9985 7.60417 20.9417 7.60168 19.839L9.26681 19.8353Z" fill="white"/>
</g>
</g>
<defs>
<clipPath id="clip0_1287_9088">
<rect width="24" height="24" fill="white"/>
</clipPath>
</defs>
</svg>
