<svg width="22" height="24" viewBox="0 0 22 24" fill="none" xmlns="http://www.w3.org/2000/svg">
<g id="ico-cart" clip-path="url(#clip0_1287_9097)">
<path id="Vector" d="M7.02479 9.50343C7.45304 9.50343 7.80141 9.85238 7.80141 10.2814C7.80141 12.0479 9.23618 13.4856 11.0003 13.4856C12.7644 13.4856 14.1992 12.0485 14.1992 10.2814C14.1992 9.85238 14.5475 9.50343 14.9758 9.50343C15.404 9.50343 15.7524 9.85238 15.7524 10.2814C15.7524 12.9059 13.6209 15.041 11.0008 15.041C8.38075 15.041 6.24925 12.9059 6.24925 10.2814C6.24925 9.85238 6.59762 9.50343 7.02588 9.50343H7.02479Z" fill="white"/>
<path id="Vector_2" d="M11.0003 0C13.5475 0 15.6328 2.01806 15.747 4.54185H14.1916C14.0796 2.87656 12.691 1.55532 11.0003 1.55532C9.30955 1.55532 7.92098 2.87602 7.80902 4.54185H6.2536C6.36773 2.01806 8.45304 0 11.0003 0Z" fill="white"/>
<path id="Vector_3" d="M17.9736 5.52175C19.4486 5.52175 20.6741 6.71778 20.7105 8.19634L20.7116 8.21267L21.7143 18.2556C21.7089 21.4239 19.1333 24 15.9692 24H5.97207C2.80309 23.9619 0.253115 21.3417 0.286266 18.1576L1.28028 8.30141V8.29052C1.28028 6.76405 2.51994 5.52175 4.04438 5.52175H17.9567C17.9622 5.52175 17.9681 5.52175 17.9736 5.52175ZM4.00634 7.07708H3.99873C3.66666 7.10103 3.36232 7.25074 3.14221 7.50007C2.92428 7.74668 2.8145 8.06024 2.83189 8.38579L1.83897 18.2338V18.2447C1.83897 20.5605 3.71992 22.4441 6.03131 22.4441H15.9692C15.9758 22.4441 15.9823 22.4441 15.9888 22.4441C17.0806 22.4441 18.1138 22.0222 18.8986 21.2546C19.6877 20.4832 20.1361 19.4516 20.1616 18.3487V18.3356L20.1605 18.3226L19.1676 8.27855C19.1616 7.61493 18.6203 7.07653 17.9567 7.07653H4.00634V7.07708Z" fill="white"/>
</g>
<defs>
<clipPath id="clip0_1287_9097">
<rect width="21.4286" height="24" fill="white" transform="matrix(-1 0 0 1 21.7143 0)"/>
</clipPath>
</defs>
</svg>
