<svg width="24" height="24" viewBox="0 0 24 24" fill="none" xmlns="http://www.w3.org/2000/svg">
<g id="ico-chat">
<g id="Vector">
<path fill-rule="evenodd" clip-rule="evenodd" d="M6.18994 6.13027C5.91917 6.13027 5.67733 6.14078 5.4559 6.1684C5.44507 6.16975 5.43422 6.17089 5.42334 6.17181C4.07297 6.28699 3.17729 6.72903 2.60632 7.399C2.02619 8.07972 1.67598 9.11873 1.67598 10.6332V15.0916C1.67598 17.2489 2.11591 18.2696 2.72856 18.8033C3.36939 19.3615 4.42158 19.5946 6.18994 19.5946H6.63687C6.65533 19.5946 6.67377 19.5952 6.69219 19.5964C6.94034 19.6128 7.18274 19.6783 7.40519 19.7893C7.62764 19.9003 7.82567 20.0543 7.9877 20.2426C7.99972 20.2565 8.01128 20.2709 8.02235 20.2856L9.36426 22.0705C9.52741 22.2885 9.68105 22.3281 9.76536 22.3281C9.84968 22.3281 10.0033 22.2885 10.1665 22.0705L10.1676 22.069L11.5084 20.2856C11.8342 19.8522 12.3508 19.5946 12.8939 19.5946H13.3408C14.8604 19.5946 15.9017 19.2474 16.5835 18.6702C17.2541 18.1025 17.6975 17.2098 17.8131 15.8566C17.814 15.8457 17.8152 15.8348 17.8165 15.8239C17.8442 15.603 17.8547 15.3617 17.8547 15.0916V10.6332C17.8547 8.98497 17.441 7.9001 16.7608 7.22155C16.0806 6.54299 14.9931 6.13027 13.3408 6.13027H6.18994ZM5.26454 4.50738C5.57397 4.46974 5.88514 4.45838 6.18994 4.45838H13.3408C15.2527 4.45838 16.8412 4.93733 17.9459 6.03934C19.0506 7.14135 19.5307 8.72593 19.5307 10.6332V15.0916C19.5307 15.3956 19.5193 15.706 19.4816 16.0146C19.3378 17.6636 18.7646 19.0165 17.6679 19.9449C16.5788 20.8669 15.0949 21.2665 13.3408 21.2665H12.8939C12.8881 21.2665 12.8792 21.268 12.8692 21.2729C12.8592 21.2779 12.8526 21.2841 12.8492 21.2887L11.5095 23.0706C11.5093 23.0709 11.5091 23.0712 11.5088 23.0715C11.0798 23.6443 10.4572 24 9.76536 24C9.07344 24 8.45078 23.6442 8.02176 23.0713C8.02158 23.0711 8.02195 23.0716 8.02176 23.0713L6.70475 21.3196C6.69033 21.3055 6.67378 21.2937 6.65567 21.2847C6.63756 21.2757 6.61818 21.2695 6.59823 21.2665H6.18994C4.39407 21.2665 2.77028 21.0592 1.62618 20.0626C0.453926 19.0414 0 17.3927 0 15.0916V10.6332C0 8.88196 0.403978 7.402 1.32943 6.31608C2.26103 5.22296 3.61657 4.65088 5.26454 4.50738Z" fill="white"/>
<path fill-rule="evenodd" clip-rule="evenodd" d="M6.33936 4.45838H13.3408C15.2527 4.45838 16.8412 4.93733 17.9459 6.03934C19.0506 7.14135 19.5307 8.72593 19.5307 10.6332V14.943C20.3672 14.7381 20.9703 14.3676 21.3941 13.8711C21.9735 13.1923 22.324 12.1539 22.324 10.6332V6.17485C22.324 4.52659 21.9103 3.44172 21.2301 2.76317C20.5499 2.08462 19.4623 1.67189 17.8101 1.67189H10.6592C9.14102 1.67189 8.09947 2.02125 7.41708 2.59997C6.91824 3.02303 6.54546 3.62478 6.33936 4.45838ZM6.33152 1.32619C7.42009 0.402993 8.90367 0 10.6592 0H17.8101C19.722 0 21.3105 0.478949 22.4152 1.58096C23.5199 2.68298 24 4.26756 24 6.17485V10.6332C24 12.3894 23.5963 13.87 22.6701 14.955C21.7349 16.0507 20.3732 16.6194 18.7194 16.7605C18.4675 16.7819 18.2193 16.6888 18.044 16.507C17.8688 16.3252 17.7852 16.0742 17.8165 15.8239C17.8442 15.603 17.8547 15.3617 17.8547 15.0916V10.6332C17.8547 8.98497 17.441 7.9001 16.7608 7.22155C16.0806 6.54299 14.9931 6.13027 13.3408 6.13027H6.18994C5.91917 6.13027 5.67733 6.14078 5.4559 6.1684C5.20499 6.19968 4.95335 6.11628 4.77109 5.94144C4.58884 5.7666 4.49547 5.51901 4.51701 5.26769C4.65854 3.61652 5.23218 2.25853 6.33152 1.32619Z" fill="white"/>
<path fill-rule="evenodd" clip-rule="evenodd" d="M4.74302 13.3751C4.74302 12.7596 5.24326 12.2605 5.86034 12.2605H5.87151C6.48859 12.2605 6.98883 12.7596 6.98883 13.3751C6.98883 13.9907 6.48859 14.4897 5.87151 14.4897H5.86034C5.24326 14.4897 4.74302 13.9907 4.74302 13.3751ZM8.65363 13.3751C8.65363 12.7596 9.15387 12.2605 9.77095 12.2605H9.78212C10.3992 12.2605 10.8994 12.7596 10.8994 13.3751C10.8994 13.9907 10.3992 14.4897 9.78212 14.4897H9.77095C9.15387 14.4897 8.65363 13.9907 8.65363 13.3751ZM12.5642 13.3751C12.5642 12.7596 13.0645 12.2605 13.6816 12.2605H13.6927C14.3098 12.2605 14.8101 12.7596 14.8101 13.3751C14.8101 13.9907 14.3098 14.4897 13.6927 14.4897H13.6816C13.0645 14.4897 12.5642 13.9907 12.5642 13.3751Z" fill="white"/>
</g>
</g>
</svg>
